<svg xmlns="http://www.w3.org/2000/svg" xmlns:xlink="http://www.w3.org/1999/xlink" viewBox="0 0 720.68 720.68"><defs><style>.cls-1{fill:url(#linear-gradient);}.cls-2{fill:#f2f1ed;}</style><linearGradient id="linear-gradient" x1="699.86" y1="28.43" x2="23.93" y2="689.22" gradientUnits="userSpaceOnUse"><stop offset="0" stop-color="#27d6db"/><stop offset="1" stop-color="#092658"/></linearGradient></defs><g id="Layer_2" data-name="Layer 2"><g id="Layer_1-2" data-name="Layer 1"><rect class="cls-1" width="720.68" height="720.68" rx="77.92"/><g id="Aibrio_logo_gradient" data-name="Aibrio logo gradient"><polygon class="cls-2" points="374.74 181.98 374.74 341.92 348.08 368.58 342.47 362.97 342.47 250.02 307.39 250.72 342.47 215.65 374.74 181.98"/><polygon class="cls-2" points="422.44 132.87 422.44 319.48 394.38 344.73 394.38 163.48 422.44 132.87"/><path class="cls-2" d="M499.61,583.68c-57.06,0-100.14-40.1-131.28-75L392,487.53c26.74,30,63.14,64.42,107.6,64.42,41,0,79.29-24.57,97.57-62.59,15.27-31.8,14.7-71.37-1.49-103.27-23.11-45.5-80.84-79.94-133.8-56.22-9.47,4.24-19,10.56-29,19.33-3.28,2.85-6.66,6-10.37,9.64-5.74,5.63-11.42,11.68-16.92,17.52l-19,20.28c-24.18,25.84-49.18,52.57-74.34,78.38C289.07,498.8,254,534.73,207,527.54c-41.25-6.3-74-40.93-77.74-82.34-4.26-46.72,27.59-90,72.51-98.6,53-10.12,88.56,31.72,112.11,59.41L289.7,426.56h0c-26.72-31.41-49.73-55-82-48.79-28.59,5.45-49.61,34.41-46.87,64.55,2.44,26.64,24.34,49.8,50.94,53.86,28.55,4.38,53.08-18,77.76-43.31,24.93-25.58,49.82-52.18,73.89-77.91l19-20.33c5.71-6.08,11.62-12.36,17.79-18.42,4.17-4.11,8-7.7,11.8-10.95,12.41-10.84,24.49-18.81,36.86-24.35,70-31.34,145.37,12.35,175.06,70.81,20.57,40.52,21.25,90.86,1.8,131.38C602.24,552.05,552.72,583.68,499.61,583.68Z"/><path class="cls-2" d="M221,585.18c-53.72,0-103.65-36.27-126.51-81.3C74,463.36,73.28,413,92.76,372.52c23.57-49,70.72-80.26,123.05-81.53,56.28-1.31,89.92,32.45,119.61,62.29,4.61,4.62,9.18,9.23,13.82,13.67l-22,22.91c-4.81-4.62-9.57-9.4-14.35-14.21-27.62-27.76-53.81-53.95-96.35-52.94-40.36,1-76.85,25.34-95.23,63.55-15.28,31.8-14.72,71.37,1.47,103.26,23.1,45.52,80.83,80,133.78,56.26,21.89-9.79,39.55-28.61,56.63-46.81l18.9-20.18c24.11-25.76,49.05-52.41,74.14-78.13l.85-.87c25-25.68,59.31-60.85,104.71-53.91,40.31,6.17,73.6,42.56,77.43,84.64,4.26,46.73-27.6,90-72.52,98.58a85.24,85.24,0,0,1-16,1.54c-44.28,0-75-36.16-96.12-61l24.17-20.55h0c26.71,31.42,49.71,54.95,82,48.82,28.59-5.45,49.61-34.4,46.87-64.54-2.51-27.53-24.75-52.19-50.64-56.15-29.26-4.5-54.73,21.64-77.19,44.69l-.85.87c-24.87,25.49-49.69,52-73.7,77.67l-18.92,20.2c-18.34,19.53-39.11,41.66-66.8,54.06A118,118,0,0,1,221,585.18Z"/></g></g></g></svg>