<svg xmlns="http://www.w3.org/2000/svg" xmlns:xlink="http://www.w3.org/1999/xlink" viewBox="0 0 720.68 720.68"><defs><style>.cls-1{fill:#f2f1ed;}.cls-2{fill:url(#linear-gradient);}.cls-3{fill:url(#linear-gradient-2);}.cls-4{fill:url(#linear-gradient-3);}.cls-5{fill:url(#linear-gradient-4);}</style><linearGradient id="linear-gradient" x1="334.98" y1="363.31" x2="353.18" y2="176.1" gradientUnits="userSpaceOnUse"><stop offset="0" stop-color="#09789e"/><stop offset="1" stop-color="#04a4c0"/></linearGradient><linearGradient id="linear-gradient-2" x1="421.27" y1="138.27" x2="397.87" y2="342.38" gradientUnits="userSpaceOnUse"><stop offset="0" stop-color="#05c4d7"/><stop offset="1" stop-color="#0d98b5"/></linearGradient><linearGradient id="linear-gradient-3" x1="125.12" y1="432.82" x2="645.6" y2="432.82" gradientUnits="userSpaceOnUse"><stop offset="0" stop-color="#072557"/><stop offset="1" stop-color="#01d0dd"/></linearGradient><linearGradient id="linear-gradient-4" x1="74.36" y1="433.83" x2="594.83" y2="433.83" xlink:href="#linear-gradient-3"/></defs><g id="Layer_2" data-name="Layer 2"><g id="Layer_1-2" data-name="Layer 1"><rect class="cls-1" width="720.68" height="720.68" rx="77.92"/><g id="Aibrio_logo_gradient" data-name="Aibrio logo gradient"><polygon class="cls-2" points="375.62 179.65 375.62 341.23 348.69 368.16 343.02 362.49 343.02 248.39 307.58 249.1 343.02 213.66 375.62 179.65"/><polygon class="cls-3" points="423.81 130.04 423.81 318.55 395.46 344.07 395.46 160.97 423.81 130.04"/><path class="cls-4" d="M501.77,583c-58.48,0-102.44-40.88-134.2-76.51l27.07-24.13c26.72,30,63.05,64.38,107.13,64.38,40,0,78.83-24.93,96.67-62C613.59,453.18,613,413.92,597,382.27,574,337.16,516.9,303,464.52,326.44c-9.37,4.2-18.79,10.47-28.79,19.2-3.3,2.86-6.69,6-10.38,9.65-5.75,5.64-11.45,11.71-17,17.57L389,393.53c-24.4,26.08-49.62,53.05-75,79.1C290.28,497,254.44,533.72,205.84,526.3c-42.62-6.51-76.4-42.29-80.32-85.07-4.4-48.27,28.52-93,75-101.87,54.71-10.46,91.15,32.38,115.25,60.72L288.1,423.57h0C261.56,392.36,238.75,369,207.27,375c-27.85,5.31-48.32,33.55-45.64,62.95,2.38,26,23.74,48.56,49.68,52.53,27.9,4.27,51.26-17,76.73-43.15,25.13-25.78,50.23-52.61,74.5-78.55L382,348c5.76-6.13,11.72-12.47,18-18.59,4.22-4.16,8.16-7.82,12-11.15C424.64,307.19,437,299,449.7,293.35c71.83-32.17,149.15,12.58,179.59,72.5,21.06,41.51,21.77,93.07,1.83,134.58C607,550.62,556.23,583,501.77,583Z"/><path class="cls-5" d="M220.36,584.55c-55.1,0-106.29-37.15-129.7-83.28-21.07-41.51-21.76-93.07-1.8-134.58C113,316.46,161.35,284.45,215,283.14c59-1.42,95.49,34.66,127.69,66.51,4,3.94,7.92,7.83,11.85,11.6l-25.09,26.18c-4.07-3.9-8.14-7.93-12.26-12-29.69-29.37-57.74-57.13-101.31-56-40,1-76.13,25.12-94.35,63C106.37,414,106.93,453.21,123,484.86c22.9,45.12,80,79.31,132.42,55.86,21.73-9.72,39.43-28.58,56.54-46.81l19.24-20.54c24.32-26,49.47-52.85,74.78-78.81l.86-.88c25.61-26.26,60.69-62.22,107.61-55.06,41.64,6.37,76,43.94,80,87.39,4.39,48.27-28.54,93-75,101.85-54.73,10.41-91.15-32.4-115.25-60.74l27.63-23.49h0c26.53,31.21,49.34,54.6,80.83,48.61,27.85-5.3,48.32-33.54,45.65-62.94-2.45-26.89-24.14-51-49.38-54.83-28.5-4.38-53.81,21.61-76.16,44.52l-.86.89c-25.05,25.69-50.07,52.42-74.27,78.27l-19.27,20.57c-18.65,19.88-39.79,42.4-68.16,55.1A121.23,121.23,0,0,1,220.36,584.55Z"/></g></g></g></svg>